# xmcd
#
# Track frame offsets: 
#        150
#        10625
#        20852
#        31335
#        41000
#        52807
#        66155
#        78945
#        88907
#        102575
#        113925
#        126622
#        136432
#        148795
#        163445
#        177272
#
# Disc length: 2508 seconds
#
# Revision: 1
# Processed by: cddbd v1.5.1PL2 Copyright (c) Steve Scherf et al.
# Submitted via: ExactAudioCopy v0.95b4
#
DISCID=e909ca10
DTITLE=Various Artist - Country Guys
DYEAR=1991
DGENRE=Country
TTITLE0=Kisses Sweeter Than Wine (Jimmie Rogers)
TTITLE1=Six Days On The Road (Dave Dudley)
TTITLE2=Sitting In An All Night Cafe (Warner Mack)
TTITLE3=Forty Miles Of Bad Road (Duane Eddy)
TTITLE4=Do What You Do Do Well (Ned Miller)
TTITLE5=It's Four In The Morning (Faren Young)
TTITLE6=Three Hearts In A Triangle (Roy Druskey)
TTITLE7=Tall Oak Tree (Dorsey Burnette)
TTITLE8=When A Man Loves A Woman (Percy Sledge)
TTITLE9=Ballad Of The Green Berets (S/Sgt Barry Sadler)
TTITLE10=The Carroll County Accident (Porter Wagoner)
TTITLE11=Truck Drivin' Outlaw (Dennis Olson)
TTITLE12=Burning Bridges (Jack Scott)
TTITLE13=I'm So Lonesome I Could Cry (B.S. Thomas)
TTITLE14=There's Always Something There To Remind Me (R.B. Greaves)
TTITLE15=Blue Eyes Crying In The Rain (Johnny Russell)
EXTD=
EXTT0=
EXTT1=
EXTT2=
EXTT3=
EXTT4=
EXTT5=
EXTT6=
EXTT7=
EXTT8=
EXTT9=
EXTT10=
EXTT11=
EXTT12=
EXTT13=
EXTT14=
EXTT15=
PLAYORDER=
